<?xml version="1.0" encoding="utf-8"?>
<!-- Generator: Adobe Illustrator 16.0.0, SVG Export Plug-In . SVG Version: 6.00 Build 0)  -->
<!DOCTYPE svg PUBLIC "-//W3C//DTD SVG 1.1//EN" "http://www.w3.org/Graphics/SVG/1.1/DTD/svg11.dtd">
<svg version="1.1" xmlns="http://www.w3.org/2000/svg" xmlns:xlink="http://www.w3.org/1999/xlink" x="0px" y="0px" width="441px"
	 height="364px" viewBox="0 0 441 364" enable-background="new 0 0 441 364" xml:space="preserve">
<g id="Grid">
	<rect x="4.5" y="2.5" fill="#FFFFFF" stroke="#999999" stroke-miterlimit="10" width="432" height="358"/>
	<line fill="none" stroke="#999999" stroke-miterlimit="10" x1="39.5" y1="3" x2="39.5" y2="363"/>
	<line fill="#FFFFFF" stroke="#999999" stroke-miterlimit="10" x1="112.5" y1="4" x2="112.5" y2="364"/>
	<line fill="none" stroke="#000000" stroke-width="3" stroke-miterlimit="10" x1="75.5" y1="4" x2="75.5" y2="364"/>
	<line fill="#FFFFFF" stroke="#999999" stroke-miterlimit="10" x1="147.5" y1="5" x2="147.5" y2="363"/>
	<line fill="#FFFFFF" stroke="#999999" stroke-miterlimit="10" x1="183.5" y1="3" x2="183.5" y2="363"/>
	<line fill="#FFFFFF" stroke="#999999" stroke-miterlimit="10" x1="256.5" y1="4" x2="256.5" y2="364"/>
	<line fill="#FFFFFF" stroke="#999999" stroke-miterlimit="10" x1="219.5" y1="4" x2="219.5" y2="364"/>
	<line fill="#FFFFFF" stroke="#999999" stroke-miterlimit="10" x1="291.5" y1="3" x2="291.5" y2="363"/>
	<line fill="#FFFFFF" stroke="#999999" stroke-miterlimit="10" x1="327.5" y1="3" x2="327.5" y2="363"/>
	<line fill="#FFFFFF" stroke="#999999" stroke-miterlimit="10" x1="4.1" y1="39" x2="435.5" y2="39.667"/>
	<line fill="#FFFFFF" stroke="#999999" stroke-miterlimit="10" x1="4" y1="75.5" x2="435" y2="75.5"/>
	<line fill="#FFFFFF" stroke="#999999" stroke-miterlimit="10" x1="3.5" y1="111.667" x2="435.5" y2="111"/>
	<line fill="#FFFFFF" stroke="#999999" stroke-miterlimit="10" x1="4" y1="147" x2="435" y2="147.667"/>
	<line fill="none" stroke="#000000" stroke-width="3" stroke-miterlimit="10" x1="4" y1="183.5" x2="435" y2="183.5"/>
	<line fill="none" stroke="#999999" stroke-miterlimit="10" x1="3.5" y1="219.667" x2="435.667" y2="219"/>
	<line fill="none" stroke="#999999" stroke-miterlimit="10" x1="4.1" y1="256" x2="435.667" y2="256.668"/>
	<line fill="none" stroke="#999999" stroke-miterlimit="10" x1="4" y1="292.5" x2="435" y2="292.5"/>
	<line fill="none" stroke="#999999" stroke-miterlimit="10" x1="4" y1="327.5" x2="435" y2="327.5"/>
	<line fill="#FFFFFF" stroke="#999999" stroke-miterlimit="10" x1="362.5" y1="3" x2="362.5" y2="363"/>
	<line fill="#FFFFFF" stroke="#999999" stroke-miterlimit="10" x1="398.5" y1="3" x2="398.5" y2="363"/>
</g>
<g id="Blue_Solutions">
	<line fill="none" stroke="#0000FF" stroke-width="5" stroke-miterlimit="10" x1="66.653" y1="332.655" x2="48.476" y2="307.715"/>
	<line fill="none" stroke="#0000FF" stroke-width="5" stroke-miterlimit="10" x1="43.648" y1="347.646" x2="25.471" y2="322.706"/>
	<line fill="none" stroke="#0000FF" stroke-width="5" stroke-miterlimit="10" x1="112.665" y1="300.672" x2="94.488" y2="275.731"/>
	<line fill="none" stroke="#0000FF" stroke-width="5" stroke-miterlimit="10" x1="89.66" y1="315.663" x2="71.482" y2="290.723"/>
	
		<line fill="none" stroke="#0000FF" stroke-width="5" stroke-miterlimit="10" x1="153.675" y1="272.687" x2="135.498" y2="247.747"/>
	<line fill="none" stroke="#0000FF" stroke-width="5" stroke-miterlimit="10" x1="130.67" y1="287.679" x2="112.493" y2="262.738"/>
	<line fill="none" stroke="#0000FF" stroke-width="5" stroke-miterlimit="10" x1="199.687" y1="240.704" x2="181.51" y2="215.763"/>
	
		<line fill="none" stroke="#0000FF" stroke-width="5" stroke-miterlimit="10" x1="176.682" y1="255.695" x2="158.504" y2="230.755"/>
	
		<line fill="none" stroke="#0000FF" stroke-width="5" stroke-miterlimit="10" x1="247.292" y1="209.418" x2="229.819" y2="183.979"/>
	
		<line fill="none" stroke="#0000FF" stroke-width="5" stroke-miterlimit="10" x1="223.875" y1="225.761" x2="206.402" y2="200.322"/>
	<line fill="none" stroke="#0000FF" stroke-width="5" stroke-miterlimit="10" x1="294.18" y1="178.733" x2="276.707" y2="153.295"/>
	
		<line fill="none" stroke="#0000FF" stroke-width="5" stroke-miterlimit="10" x1="270.764" y1="193.076" x2="253.291" y2="167.637"/>
	
		<line fill="none" stroke="#0000FF" stroke-width="5" stroke-miterlimit="10" x1="335.956" y1="151.906" x2="318.483" y2="126.467"/>
	<line fill="none" stroke="#0000FF" stroke-width="5" stroke-miterlimit="10" x1="312.541" y1="166.249" x2="295.067" y2="140.81"/>
	<line fill="none" stroke="#0000FF" stroke-width="5" stroke-miterlimit="10" x1="382.844" y1="121.221" x2="365.371" y2="95.782"/>
	
		<line fill="none" stroke="#0000FF" stroke-width="5" stroke-miterlimit="10" x1="359.428" y1="135.564" x2="341.955" y2="110.125"/>
	<line fill="none" stroke="#0000FF" stroke-width="5" stroke-miterlimit="10" x1="426.855" y1="89.238" x2="409.382" y2="63.8"/>
	<line fill="none" stroke="#0000FF" stroke-width="5" stroke-miterlimit="10" x1="406.439" y1="104.581" x2="388.966" y2="79.143"/>
</g>
<g id="Green_Solutions">
	<line fill="none" stroke="#00FF00" stroke-width="5" stroke-miterlimit="10" x1="244.451" y1="77.519" x2="238.556" y2="104.581"/>
	<line fill="none" stroke="#00FF00" stroke-width="5" stroke-miterlimit="10" x1="265.451" y1="82.519" x2="259.556" y2="109.581"/>
	<line fill="none" stroke="#00FF00" stroke-width="5" stroke-miterlimit="10" x1="287.451" y1="86.519" x2="281.556" y2="113.581"/>
	<line fill="none" stroke="#00FF00" stroke-width="5" stroke-miterlimit="10" x1="308.451" y1="91.519" x2="302.556" y2="118.581"/>
	<line fill="none" stroke="#00FF00" stroke-width="5" stroke-miterlimit="10" x1="328.451" y1="98.519" x2="322.556" y2="125.581"/>
	
		<line fill="none" stroke="#00FF00" stroke-width="5" stroke-miterlimit="10" x1="349.451" y1="103.519" x2="343.556" y2="130.581"/>
	
		<line fill="none" stroke="#00FF00" stroke-width="5" stroke-miterlimit="10" x1="371.451" y1="107.519" x2="365.556" y2="134.581"/>
	
		<line fill="none" stroke="#00FF00" stroke-width="5" stroke-miterlimit="10" x1="392.451" y1="112.519" x2="386.556" y2="139.581"/>
	
		<line fill="none" stroke="#00FF00" stroke-width="5" stroke-miterlimit="10" x1="409.451" y1="112.519" x2="403.556" y2="139.581"/>
	<line fill="none" stroke="#00FF00" stroke-width="5" stroke-miterlimit="10" x1="60.451" y1="32.519" x2="54.556" y2="59.581"/>
	<line fill="none" stroke="#00FF00" stroke-width="5" stroke-miterlimit="10" x1="81.451" y1="37.519" x2="75.556" y2="64.581"/>
	<line fill="none" stroke="#00FF00" stroke-width="5" stroke-miterlimit="10" x1="100.391" y1="46.519" x2="95.427" y2="68.197"/>
	<line fill="none" stroke="#00FF00" stroke-width="5" stroke-miterlimit="10" x1="121.451" y1="51.519" x2="115.556" y2="72.05"/>
	<line fill="none" stroke="#00FF00" stroke-width="5" stroke-miterlimit="10" x1="144.451" y1="53.519" x2="138.556" y2="80.581"/>
	<line fill="none" stroke="#00FF00" stroke-width="5" stroke-miterlimit="10" x1="165.451" y1="58.519" x2="159.556" y2="85.581"/>
	<line fill="none" stroke="#00FF00" stroke-width="5" stroke-miterlimit="10" x1="187.451" y1="62.519" x2="181.556" y2="89.581"/>
	<line fill="none" stroke="#00FF00" stroke-width="5" stroke-miterlimit="10" x1="208.451" y1="67.519" x2="202.556" y2="94.581"/>
	<line fill="none" stroke="#00FF00" stroke-width="5" stroke-miterlimit="10" x1="223.451" y1="73.519" x2="217.556" y2="100.581"/>
	<line fill="none" stroke="#00FF00" stroke-width="5" stroke-miterlimit="10" x1="37.451" y1="26.519" x2="31.556" y2="53.581"/>
</g>
<g id="Red_Solutions">
	<line fill="none" stroke="#FF0000" stroke-width="5" stroke-miterlimit="10" x1="76" y1="26.5" x2="98" y2="26.5"/>
	<line fill="none" stroke="#FF0000" stroke-width="5" stroke-miterlimit="10" x1="76" y1="51.5" x2="98" y2="51.5"/>
	<line fill="none" stroke="#FF0000" stroke-width="5" stroke-miterlimit="10" x1="76" y1="74.5" x2="98" y2="74.5"/>
	<line fill="none" stroke="#FF0000" stroke-width="5" stroke-miterlimit="10" x1="76" y1="99.5" x2="98" y2="99.5"/>
	<line fill="none" stroke="#FF0000" stroke-width="5" stroke-miterlimit="10" x1="76" y1="122.5" x2="98" y2="122.5"/>
	<line fill="none" stroke="#FF0000" stroke-width="5" stroke-miterlimit="10" x1="76" y1="147.5" x2="98" y2="147.5"/>
	<line fill="none" stroke="#FF0000" stroke-width="5" stroke-miterlimit="10" x1="76" y1="170.5" x2="98" y2="170.5"/>
	<line fill="none" stroke="#FF0000" stroke-width="5" stroke-miterlimit="10" x1="76" y1="195.5" x2="98" y2="195.5"/>
	<line fill="none" stroke="#FF0000" stroke-width="5" stroke-miterlimit="10" x1="76" y1="218.5" x2="98" y2="218.5"/>
	<line fill="none" stroke="#FF0000" stroke-width="5" stroke-miterlimit="10" x1="76" y1="243.5" x2="98" y2="243.5"/>
	<line fill="none" stroke="#FF0000" stroke-width="5" stroke-miterlimit="10" x1="76" y1="266.5" x2="98" y2="266.5"/>
	<line fill="none" stroke="#FF0000" stroke-width="5" stroke-miterlimit="10" x1="76" y1="291.5" x2="98" y2="291.5"/>
	<line fill="none" stroke="#FF0000" stroke-width="5" stroke-miterlimit="10" x1="76" y1="314.5" x2="98" y2="314.5"/>
	<line fill="none" stroke="#FF0000" stroke-width="5" stroke-miterlimit="10" x1="76" y1="339.5" x2="98" y2="339.5"/>
	<line fill="none" stroke="#FF0000" stroke-width="5" stroke-miterlimit="10" x1="76" y1="361.5" x2="98" y2="361.5"/>
	<line fill="none" stroke="#FF0000" stroke-width="5" stroke-miterlimit="10" x1="76" y1="6.5" x2="98" y2="6.5"/>
</g>
<g id="Solution">
	<g id="XMLID_1_">
		<g>
			<polygon fill="#93278F" points="394.268,114.235 77.078,325.484 78.998,39.925 			"/>
		</g>
		<g>
			<polyline fill="none" stroke="#93278F" stroke-width="5" stroke-miterlimit="10" points="77.038,330.955 77.078,325.484 
				78.998,39.925 			"/>
			<polyline fill="none" stroke="#93278F" stroke-width="5" stroke-miterlimit="10" points="76.998,325.535 77.078,325.484 
				394.268,114.235 			"/>
			
				<line fill="none" stroke="#93278F" stroke-width="5" stroke-miterlimit="10" x1="78.998" y1="39.925" x2="394.268" y2="114.235"/>
		</g>
	</g>
</g>
<g id="Text">
	<rect x="131.001" y="113.335" fill="none" width="122.29" height="75.333"/>
	<text transform="matrix(1 0 0 1 131.0015 136.0547)"><tspan x="0" y="0" font-family="'MyriadPro-Regular'" font-size="32">Solution </tspan><tspan x="0" y="38.4" font-family="'MyriadPro-Regular'" font-size="32">Region</tspan></text>
</g>
<g id="Functions">
	<line fill="none" stroke="#0000FF" stroke-width="5" stroke-miterlimit="10" x1="23" y1="361.5" x2="435.667" y2="86.668"/>
	<line fill="none" stroke="#00FF00" stroke-width="5" stroke-miterlimit="10" x1="435.667" y1="121.229" x2="4.5" y2="22.668"/>
	<g>
		<g>
			<line fill="none" stroke="#FF0000" stroke-width="5" stroke-miterlimit="10" x1="75.5" y1="4" x2="75.5" y2="10"/>
			
				<line fill="none" stroke="#FF0000" stroke-width="5" stroke-miterlimit="10" stroke-dasharray="12,12" x1="75.5" y1="22" x2="75.5" y2="352"/>
			<line fill="none" stroke="#FF0000" stroke-width="5" stroke-miterlimit="10" x1="75.5" y1="358" x2="75.5" y2="364"/>
		</g>
	</g>
</g>
</svg>
