<?xml version="1.0" encoding="utf-8"?>
<!-- Generator: Adobe Illustrator 16.0.0, SVG Export Plug-In . SVG Version: 6.00 Build 0)  -->
<!DOCTYPE svg PUBLIC "-//W3C//DTD SVG 1.1//EN" "http://www.w3.org/Graphics/SVG/1.1/DTD/svg11.dtd">
<svg version="1.1" id="Layer_1" xmlns="http://www.w3.org/2000/svg" xmlns:xlink="http://www.w3.org/1999/xlink" x="0px" y="0px"
	 width="393px" height="273px" viewBox="0 0 393 273" enable-background="new 0 0 393 273" xml:space="preserve">
<rect x="1.5" y="1.5" fill="#FFFFFF" stroke="#000000" stroke-width="3" stroke-miterlimit="10" width="390" height="270"/>
<path fill="#00FFFF" stroke="#0000FF" stroke-width="3" stroke-miterlimit="10" d="M230.5,100.715c0,4.664-4.32,8.785-9.479,8.785
	h-48.264c-5.159,0-9.257-4.121-9.257-8.785V56.385c0-4.663,4.098-7.885,9.257-7.885h48.264c5.159,0,9.479,3.222,9.479,7.885V100.715
	z"/>
<polygon fill="#00FFFF" stroke="#0000FF" stroke-width="3" stroke-miterlimit="10" points="302.369,228.429 259.235,242.481 
	224.206,215.743 232.309,174.951 275.441,160.898 310.471,187.637 "/>
<path fill="#00FFFF" stroke="#0000FF" stroke-width="3" stroke-miterlimit="10" d="M141.373,233.881
	c-0.91,4.663-5.83,8.619-10.989,8.619h-55.27c-5.159,0-8.604-3.956-7.694-8.619l11.393-58.17c0.91-4.663,5.83-8.211,10.989-8.211
	h55.27c5.159,0,8.604,3.548,7.694,8.211L141.373,233.881z"/>
<polygon fill="#00FFFF" stroke="#0000FF" stroke-width="3" stroke-miterlimit="10" points="101.53,96.846 33.552,97.667 
	66.753,44.042 "/>
<line fill="none" stroke="#FF0000" stroke-width="3" stroke-miterlimit="10" x1="66.5" y1="41" x2="66.5" y2="103"/>
<line fill="none" stroke="#FF0000" stroke-width="3" stroke-miterlimit="10" x1="104.577" y1="98.439" x2="45.524" y2="68.347"/>
<line fill="none" stroke="#FF0000" stroke-width="3" stroke-miterlimit="10" x1="29.914" y1="100.259" x2="91.41" y2="65.885"/>
<line fill="none" stroke="#FF0000" stroke-width="3" stroke-miterlimit="10" x1="196.5" y1="44" x2="196.5" y2="115"/>
<line fill="none" stroke="#FF0000" stroke-width="3" stroke-miterlimit="10" x1="157" y1="80.5" x2="238" y2="80.5"/>
<line fill="none" stroke="#FF0000" stroke-width="3" stroke-miterlimit="10" x1="159.914" y1="44.042" x2="232.309" y2="112.326"/>
<line fill="none" stroke="#FF0000" stroke-width="3" stroke-miterlimit="10" x1="163.417" y1="112.326" x2="235.422" y2="44.042"/>
<line fill="none" stroke="#FF0000" stroke-width="3" stroke-miterlimit="10" x1="62.607" y1="242.481" x2="154.667" y2="165.297"/>
<line fill="none" stroke="#FF0000" stroke-width="3" stroke-miterlimit="10" x1="78.177" y1="162.637" x2="140.841" y2="245.668"/>
<line fill="none" stroke="#FF0000" stroke-width="3" stroke-miterlimit="10" x1="259.011" y1="245.668" x2="275.118" y2="157.065"/>
<line fill="none" stroke="#FF0000" stroke-width="3" stroke-miterlimit="10" x1="228.079" y1="171.868" x2="308.881" y2="232.849"/>
<line fill="none" stroke="#FF0000" stroke-width="3" stroke-miterlimit="10" x1="219.853" y1="215.763" x2="314.434" y2="185.506"/>
<path fill="#00FFFF" stroke="#0000FF" stroke-width="3" stroke-miterlimit="10" d="M379.5,104.234c0,4.663-3.859,8.266-9.018,8.266
	H286.41c-5.159,0-8.91-3.603-8.91-8.266V56.385c0-4.663,3.751-7.885,8.91-7.885h84.072c5.159,0,9.018,3.222,9.018,7.885V104.234z"/>
<line fill="none" stroke="#FF0000" stroke-width="3" stroke-miterlimit="10" x1="328.5" y1="37" x2="328.5" y2="121"/>
<line fill="none" stroke="#FF0000" stroke-width="3" stroke-miterlimit="10" x1="387.997" y1="79.605" x2="264.225" y2="80.31"/>
</svg>
